<svg aria-hidden="true" style="position: absolute; width: 0; height: 0; overflow: hidden;" version="1.1" xmlns="http://www.w3.org/2000/svg" xmlns:xlink="http://www.w3.org/1999/xlink">
<defs>
<symbol id="icon-instagram" viewBox="0 0 24 24">
<path d="M7 1c-1.657 0-3.158 0.673-4.243 1.757s-1.757 2.586-1.757 4.243v10c0 1.657 0.673 3.158 1.757 4.243s2.586 1.757 4.243 1.757h10c1.657 0 3.158-0.673 4.243-1.757s1.757-2.586 1.757-4.243v-10c0-1.657-0.673-3.158-1.757-4.243s-2.586-1.757-4.243-1.757zM7 3h10c1.105 0 2.103 0.447 2.828 1.172s1.172 1.723 1.172 2.828v10c0 1.105-0.447 2.103-1.172 2.828s-1.723 1.172-2.828 1.172h-10c-1.105 0-2.103-0.447-2.828-1.172s-1.172-1.723-1.172-2.828v-10c0-1.105 0.447-2.103 1.172-2.828s1.723-1.172 2.828-1.172zM16.989 11.223c-0.15-0.972-0.571-1.857-1.194-2.567-0.754-0.861-1.804-1.465-3.009-1.644-0.464-0.074-0.97-0.077-1.477-0.002-1.366 0.202-2.521 0.941-3.282 1.967s-1.133 2.347-0.93 3.712 0.941 2.521 1.967 3.282 2.347 1.133 3.712 0.93 2.521-0.941 3.282-1.967 1.133-2.347 0.93-3.712zM15.011 11.517c0.122 0.82-0.1 1.609-0.558 2.227s-1.15 1.059-1.969 1.18-1.609-0.1-2.227-0.558-1.059-1.15-1.18-1.969 0.1-1.609 0.558-2.227 1.15-1.059 1.969-1.18c0.313-0.046 0.615-0.042 0.87-0.002 0.74 0.11 1.366 0.47 1.818 0.986 0.375 0.428 0.63 0.963 0.72 1.543zM17.5 7.5c0.552 0 1-0.448 1-1s-0.448-1-1-1-1 0.448-1 1 0.448 1 1 1z"></path>
</symbol>
<symbol id="icon-bars" viewBox="0 0 24 28">
<path d="M24 21v2c0 0.547-0.453 1-1 1h-22c-0.547 0-1-0.453-1-1v-2c0-0.547 0.453-1 1-1h22c0.547 0 1 0.453 1 1zM24 13v2c0 0.547-0.453 1-1 1h-22c-0.547 0-1-0.453-1-1v-2c0-0.547 0.453-1 1-1h22c0.547 0 1 0.453 1 1zM24 5v2c0 0.547-0.453 1-1 1h-22c-0.547 0-1-0.453-1-1v-2c0-0.547 0.453-1 1-1h22c0.547 0 1 0.453 1 1z"></path>
</symbol>
<symbol id="icon-moon-o" viewBox="0 0 23 28">
<path d="M19.719 20.359c-0.562 0.094-1.141 0.141-1.719 0.141-5.797 0-10.5-4.703-10.5-10.5 0-1.984 0.578-3.922 1.625-5.578-4.156 1.234-7.125 5.047-7.125 9.578 0 5.516 4.484 10 10 10 3.016 0 5.844-1.375 7.719-3.641zM22.891 19.031c-1.953 4.234-6.234 6.969-10.891 6.969-6.609 0-12-5.391-12-12 0-6.484 5.078-11.75 11.547-11.984 0.438-0.016 0.797 0.234 0.953 0.609 0.172 0.391 0.063 0.844-0.234 1.125-1.781 1.625-2.766 3.844-2.766 6.25 0 4.688 3.813 8.5 8.5 8.5 1.234 0 2.422-0.266 3.563-0.797 0.391-0.172 0.828-0.094 1.125 0.203s0.375 0.75 0.203 1.125z"></path>
</symbol>
<symbol id="icon-twitter" viewBox="0 0 20 20">
<path d="M17.316 6.246c0.008 0.162 0.011 0.326 0.011 0.488 0 4.99-3.797 10.742-10.74 10.742-2.133 0-4.116-0.625-5.787-1.697 0.296 0.035 0.596 0.053 0.9 0.053 1.77 0 3.397-0.604 4.688-1.615-1.651-0.031-3.046-1.121-3.526-2.621 0.23 0.043 0.467 0.066 0.71 0.066 0.345 0 0.679-0.045 0.995-0.131-1.727-0.348-3.028-1.873-3.028-3.703 0-0.016 0-0.031 0-0.047 0.509 0.283 1.092 0.453 1.71 0.473-1.013-0.678-1.68-1.832-1.68-3.143 0-0.691 0.186-1.34 0.512-1.898 1.861 2.285 4.644 3.787 7.781 3.945-0.064-0.277-0.097-0.564-0.097-0.861 0-2.084 1.689-3.773 3.774-3.773 1.086 0 2.067 0.457 2.756 1.191 0.859-0.17 1.667-0.484 2.397-0.916-0.282 0.881-0.881 1.621-1.66 2.088 0.764-0.092 1.49-0.293 2.168-0.594-0.506 0.758-1.146 1.422-1.884 1.953z"></path>
</symbol>
<symbol id="icon-brightness-up" viewBox="0 0 20 20">
<path d="M10 14c-2.209 0-4-1.791-4-4s1.791-4 4-4v0c2.209 0 4 1.791 4 4s-1.791 4-4 4v0zM9 1c0-0.552 0.448-1 1-1s1 0.448 1 1v0 2c0 0.552-0.448 1-1 1s-1-0.448-1-1v0-2zM15.65 2.94c0.184-0.215 0.456-0.35 0.76-0.35 0.552 0 1 0.448 1 1 0 0.303-0.135 0.575-0.348 0.758l-0.001 0.001-1.4 1.4c-0.184 0.215-0.456 0.35-0.76 0.35-0.552 0-1-0.448-1-1 0-0.303 0.135-0.575 0.348-0.758l0.001-0.001 1.4-1.4zM18.99 9c0.552 0 1 0.448 1 1s-0.448 1-1 1v0h-1.98c-0.552 0-1-0.448-1-1s0.448-1 1-1v0h1.98zM17.060 15.65c0.215 0.184 0.35 0.456 0.35 0.76 0 0.552-0.448 1-1 1-0.303 0-0.575-0.135-0.758-0.348l-0.001-0.001-1.4-1.4c-0.215-0.184-0.35-0.456-0.35-0.76 0-0.552 0.448-1 1-1 0.303 0 0.575 0.135 0.758 0.348l0.001 0.001 1.4 1.4zM11 18.99c0 0.552-0.448 1-1 1s-1-0.448-1-1v0-1.98c0-0.552 0.448-1 1-1s1 0.448 1 1v0 1.98zM4.35 17.060c-0.184 0.215-0.456 0.35-0.76 0.35-0.552 0-1-0.448-1-1 0-0.303 0.135-0.575 0.348-0.758l0.001-0.001 1.4-1.4c0.184-0.215 0.456-0.35 0.76-0.35 0.552 0 1 0.448 1 1 0 0.303-0.135 0.575-0.348 0.758l-0.001 0.001-1.4 1.4zM1.010 11c-0.552 0-1-0.448-1-1s0.448-1 1-1v0h1.98c0.552 0 1 0.448 1 1s-0.448 1-1 1v0h-1.98zM2.94 4.35c-0.215-0.184-0.35-0.456-0.35-0.76 0-0.552 0.448-1 1-1 0.303 0 0.575 0.135 0.758 0.348l0.001 0.001 1.4 1.4c0.215 0.184 0.35 0.456 0.35 0.76 0 0.552-0.448 1-1 1-0.303 0-0.575-0.135-0.758-0.348l-0.001-0.001-1.4-1.4z"></path>
</symbol>
<symbol id="icon-facebook" viewBox="0 0 32 32">
<path d="M19 6h5v-6h-5c-3.86 0-7 3.14-7 7v3h-4v6h4v16h6v-16h5l1-6h-6v-3c0-0.542 0.458-1 1-1z"></path>
</symbol>
</defs>
</svg>
